# xmcd
#
# Track frame offsets:
#	150
#	29659
#	42923
#	61671
#	95962
#	116322
#	123568
#	150097
#	177071
#
# Disc length: 2554 seconds
#
# Revision: 1
# Processed by: cddbd v1.5.1PL0 Copyright (c) Steve Scherf et al.
# Submitted via: EasyCDDAExtractor 6.2.0.3
#
DISCID=6b09f809
DTITLE=Chris Caffery - God Damn War
DYEAR=2004
DGENRE=Metal
TTITLE0=God damn war
TTITLE1=Fool, fool
TTITLE2=Edge of Darkness
TTITLE3=Saddamize
TTITLE4=I
TTITLE5=Amazing Grace
TTITLE6=Piece be with you
TTITLE7=Beat me, you'll never beat me
TTITLE8=Curtains
EXTD=
EXTT0=
EXTT1=
EXTT2=
EXTT3=
EXTT4=
EXTT5=
EXTT6=
EXTT7=
EXTT8=
PLAYORDER=
